Coordinates
version=1
nRows=19
nColumns=38
inDegrees=no

Units are S.I. units (second, meters, Newtons, ...)
If the header above contains a line with 'inDegrees', this indicates whether rotational values are in degrees (yes) or radians (no).

endheader
time	pelvis_tilt	pelvis_list	pelvis_rotation	pelvis_tx	pelvis_ty	pelvis_tz	hip_flexion_r	hip_adduction_r	hip_rotation_r	knee_angle_r	ankle_angle_r	subtalar_angle_r	mtp_angle_r	hip_flexion_l	hip_adduction_l	hip_rotation_l	knee_angle_l	ankle_angle_l	subtalar_angle_l	mtp_angle_l	lumbar_extension	lumbar_bending	lumbar_rotation	arm_flex_r	arm_add_r	arm_rot_r	elbow_flex_r	pro_sup_r	wrist_flex_r	wrist_dev_r	arm_flex_l	arm_add_l	arm_rot_l	elbow_flex_l	pro_sup_l	wrist_flex_l	wrist_dev_l
4.125	-0.0451467	-0.0751041	-0.0748735	1.10366	0.963612	-0.314555	0.440658	0.122767	-0.199343	-0.792468	0.541778	0.353957	0	0.202185	-0.196154	-0.175649	-2.32443	0.0580867	0.0200434	0	-0.199111	0.149572	0.0508497	-0.508356	-0.235087	-0.23007	1.4442	1.1114	0	0	-0.617283	-0.267381	0.0192377	1.53286	1.63685	0	0
4.13333	-0.0515335	-0.0728305	-0.0697721	1.1004	0.959347	-0.314495	0.418219	0.12421	-0.188033	-0.819839	0.599352	0.349281	0	0.284801	-0.206553	-0.160714	-2.37292	0.0934571	0.0357275	0	-0.194612	0.144618	0.0705357	-0.468711	-0.24134	-0.210726	1.45421	1.11675	0	0	-0.628974	-0.269788	0.00721301	1.48205	1.62466	0	0
4.14167	-0.0587158	-0.0684785	-0.0657697	1.09725	0.956118	-0.314353	0.390164	0.122487	-0.180213	-0.833436	0.642921	0.349684	0	0.370406	-0.213306	-0.147978	-2.4061	0.127316	0.0538828	0	-0.188794	0.136843	0.0921256	-0.431092	-0.245992	-0.19589	1.4713	1.12442	0	0	-0.642997	-0.273229	-0.00708827	1.44329	1.61252	0	0
4.15	-0.0661424	-0.0616353	-0.0631182	1.09442	0.954056	-0.314159	0.356243	0.116683	-0.175285	-0.83418	0.671791	0.35543	0	0.456233	-0.215956	-0.139026	-2.42279	0.158694	0.072737	0	-0.181883	0.125921	0.115279	-0.396672	-0.2492	-0.185902	1.49589	1.13564	0	0	-0.660288	-0.277376	-0.0239419	1.41786	1.60178	0	0
4.15833	-0.0734843	-0.0520291	-0.0617284	1.09209	0.953234	-0.313956	0.31675	0.106231	-0.173047	-0.823547	0.685633	0.366021	0	0.539769	-0.214293	-0.134874	-2.42252	0.18663	0.0908393	0	-0.173892	0.11172	0.139332	-0.366426	-0.251165	-0.180586	1.52792	1.15101	0	0	-0.681431	-0.281924	-0.0433366	1.40615	1.59326	0	0
4.16667	-0.0806313	-0.0396028	-0.0611583	1.09039	0.953675	-0.313794	0.272379	0.0910124	-0.173738	-0.803211	0.684182	0.380323	0	0.618955	-0.208363	-0.135874	-2.40551	0.21029	0.10717	0	-0.164689	0.0943536	0.163357	-0.341045	-0.252105	-0.17928	1.5668	1.1702	0	0	-0.706601	-0.28661	-0.0649726	1.40757	1.58714	0	0
4.175	-0.0876436	-0.0245177	-0.0606627	1.08939	0.955345	-0.313719	0.224055	0.0713541	-0.17793	-0.774787	0.667125	0.39676	0	0.692268	-0.198376	-0.141742	-2.37259	0.229017	0.121122	0	-0.1541	0.0741494	0.186246	-0.32089	-0.252236	-0.180932	1.61152	1.19209	0	0	-0.735586	-0.291214	-0.0883193	1.4207	1.58297	0	0
4.18333	-0.0946955	-0.00711447	-0.0593015	1.08913	0.958155	-0.313777	0.172806	0.0479315	-0.186363	-0.73971	0.634161	0.413681	0	0.758731	-0.184597	-0.151704	-2.32504	0.242395	0.132519	0	-0.14199	0.0515751	0.206835	-0.305999	-0.251761	-0.184282	1.66071	1.21504	0	0	-0.767884	-0.295549	-0.112711	1.44358	1.57987	0	0
4.19167	-0.102038	0.0121329	-0.056097	1.08955	0.961955	-0.314017	0.119737	0.0216728	-0.199641	-0.699286	0.585196	0.42959	0	0.81789	-0.167277	-0.164681	-2.26437	0.250301	0.141607	0	-0.128296	0.0271637	0.224044	-0.296112	-0.250853	-0.188045	1.71272	1.23742	0	0	-0.802825	-0.299448	-0.137455	1.47396	1.57678	0	0
4.2	-0.109982	0.0326421	-0.050218	1.09059	0.966538	-0.314485	0.066078	-0.00630798	-0.21787	-0.654874	0.52063	0.443262	0	0.869763	-0.146687	-0.179482	-2.19219	0.252948	0.149025	0	-0.113024	0.00147899	0.237033	-0.290725	-0.249663	-0.191096	1.76579	1.25796	0	0	-0.839687	-0.302744	-0.161937	1.50963	1.57276	0	0
4.20833	-0.118872	0.0537195	-0.0411585	1.09211	0.97165	-0.315214	0.0132571	-0.0347466	-0.240307	-0.60815	0.441702	0.453796	0	0.914742	-0.123232	-0.194965	-2.11006	0.250899	0.155749	0	-0.0962231	-0.0248719	0.24535	-0.289154	-0.248325	-0.19259	1.8181	1.276	0	0	-0.877761	-0.305251	-0.185686	1.54867	1.56719	0	0
4.21667	-0.129035	0.0745463	-0.0288735	1.09397	0.977013	-0.31621	-0.0370729	-0.0622542	-0.265132	-0.561333	0.350818	0.460627	0	0.953448	-0.0975843	-0.21015	-2.0194	0.245036	0.163	0	-0.0779947	-0.0511928	0.249025	-0.290593	-0.246971	-0.192024	1.86788	1.29147	0	0	-0.916369	-0.306754	-0.208401	1.58948	1.55989	0	0
4.225	-0.140683	0.0941828	-0.0138392	1.096	0.982367	-0.317436	-0.0831347	-0.087366	-0.289469	-0.517255	0.2517	0.463554	0	0.986518	-0.0707849	-0.224319	-1.92144	0.236501	0.172193	0	-0.0585432	-0.0766588	0.248593	-0.294172	-0.245741	-0.189253	1.91352	1.30472	0	0	-0.95483	-0.307015	-0.229921	1.63085	1.5511	0	0
4.23333	-0.153782	0.111616	0.00298647	1.098	0.9875	-0.318795	-0.123252	-0.108639	-0.309719	-0.479213	0.149246	0.462783	0	1.01438	-0.044217	-0.237065	-1.8172	0.226556	0.184821	0	-0.0382685	-0.100317	0.245026	-0.299012	-0.244768	-0.184446	1.95361	1.31632	0	0	-0.992415	-0.305797	-0.250152	1.67186	1.54138	0	0
4.24167	-0.16795	0.125858	0.0203005	1.09977	0.992267	-0.320138	-0.156132	-0.124786	-0.322163	-0.450639	0.0491655	0.458923	0	1.03706	-0.0194517	-0.248315	-1.70751	0.216353	0.202279	0	-0.017855	-0.121144	0.239578	-0.304278	-0.244164	-0.178032	1.98702	1.32681	0	0	-1.0283	-0.302908	-0.26899	1.71177	1.53148	0	0
4.25	-0.182405	0.136074	0.0366694	1.1012	0.996585	-0.321291	-0.181117	-0.13483	-0.323771	-0.434673	-0.0426689	0.452946	0	1.05408	0.0020106	-0.25831	-1.59304	0.206661	0.225622	0	0.00168661	-0.138165	0.233577	-0.30925	-0.243994	-0.170623	2.0129	1.33652	0	0	-1.06156	-0.298251	-0.286246	1.75	1.52221	0	0
4.25833	-0.196018	0.141713	0.0507752	1.1022	1.00043	-0.322098	-0.198326	-0.138225	-0.312878	-0.43374	-0.12103	0.445879	0	1.06453	0.0190065	-0.267559	-1.47438	0.197649	0.255403	0	0.0190584	-0.150593	0.228204	-0.313385	-0.244245	-0.162941	2.03076	1.34554	0	0	-1.09122	-0.291866	-0.301626	1.78601	1.51429	0	0
4.26667	-0.207458	0.1426	0.0616401	1.10277	1.00381	-0.322462	-0.208615	-0.134945	-0.28965	-0.449273	-0.182093	0.438458	0	1.06721	0.030932	-0.276769	-1.35215	0.18876	0.291529	0	0.032807	-0.157971	0.224311	-0.316386	-0.244812	-0.155733	2.04042	1.35369	0	0	-1.11633	-0.283964	-0.314744	1.81933	1.50828	0	0
4.275	-0.215404	0.138988	0.0687811	1.10294	1.00679	-0.32237	-0.213372	-0.125539	-0.256198	-0.481636	-0.22397	0.430867	0	1.06093	0.0378651	-0.286733	-1.22712	0.17874	0.333153	0	0.0415245	-0.160278	0.222315	-0.318242	-0.245491	-0.149685	2.04204	1.36062	0	0	-1.13606	-0.274924	-0.325185	1.84959	1.50444	0	0
